<?xml version="1.0" standalone="no"?>
<!DOCTYPE svg PUBLIC "-//W3C//DTD SVG 20010904//EN"
 "http://www.w3.org/TR/2001/REC-SVG-20010904/DTD/svg10.dtd">
<svg version="1.0" xmlns="http://www.w3.org/2000/svg"
 width="695.000000pt" height="692.000000pt" viewBox="0 0 695.000000 692.000000"
 preserveAspectRatio="xMidYMid meet">

<g transform="translate(0.000000,692.000000) scale(0.100000,-0.100000)"
fill="#000000" stroke="none">
<path d="M0 3460 l0 -3460 3475 0 3475 0 0 3460 0 3460 -3475 0 -3475 0 0
-3460z m5249 2533 c33 -17 68 -45 88 -71 31 -41 33 -48 33 -125 0 -89 -3 -96
-118 -307 -26 -47 -63 -123 -84 -170 l-38 -84 3 -1766 2 -1765 -29 -85 c-64
-191 -116 -252 -284 -333 l-106 -52 -1176 -3 c-1234 -3 -1406 1 -1500 37 -101
38 -220 151 -268 255 -52 110 -57 151 -57 478 -1 169 -4 310 -8 314 -4 4 -63
10 -131 14 -140 7 -179 22 -208 80 -40 78 -12 240 45 272 13 7 81 15 157 18
l135 5 0 275 0 275 -135 5 c-152 6 -175 15 -206 82 -21 47 -14 162 14 216 32
63 52 71 200 78 l132 7 0 288 0 287 -117 7 c-65 4 -135 11 -156 16 -44 12 -57
35 -83 147 -19 84 -9 125 45 182 l38 40 131 0 c72 0 133 4 136 9 3 5 8 130 11
278 2 147 9 295 15 328 27 147 134 297 256 362 111 59 194 70 474 62 135 -3
697 -5 1250 -4 792 2 1014 0 1048 -10 40 -12 44 -12 56 8 40 66 88 152 125
227 49 98 63 115 111 141 48 26 126 19 199 -18z"/>
<path d="M2193 5434 c-77 -20 -130 -50 -188 -105 -80 -76 -85 -99 -87 -427 0
-190 3 -277 10 -284 7 -7 68 -14 148 -17 l136 -6 24 -30 c72 -89 64 -235 -16
-310 l-32 -30 -129 1 c-123 1 -130 0 -135 -20 -2 -12 -3 -142 -2 -291 l3 -270
130 -5 c150 -6 172 -14 206 -82 28 -56 25 -198 -6 -240 -31 -41 -57 -48 -183
-48 -64 0 -124 -5 -132 -10 -12 -7 -16 -55 -21 -267 -3 -142 -2 -265 2 -274 7
-14 30 -18 136 -21 76 -3 139 -9 154 -17 44 -22 69 -86 69 -178 0 -143 -48
-179 -225 -169 -148 9 -139 25 -146 -252 -4 -125 -2 -261 3 -302 13 -101 55
-187 126 -251 101 -92 -38 -84 1397 -84 l1270 0 42 22 c60 33 108 86 144 162
l31 66 4 1455 c2 1005 7 1480 15 1535 24 169 -2 198 -61 68 -48 -104 -51 -110
-299 -598 -220 -433 -248 -486 -308 -573 -24 -35 -43 -74 -43 -88 0 -24 1 -24
95 -24 l95 0 0 -100 c0 -119 11 -111 -163 -108 l-118 3 -32 -37 c-18 -21 -76
-66 -129 -100 -54 -35 -113 -73 -130 -85 -45 -30 -129 -75 -133 -71 -2 2 -7
62 -10 133 -3 72 -8 139 -10 150 -4 20 -11 20 -465 17 l-460 -3 0 89 0 89 53
8 c28 4 240 10 470 14 l418 6 70 135 c39 74 86 161 105 193 19 33 34 67 32 76
-3 14 -56 16 -570 16 -311 0 -569 3 -572 6 -3 3 -2 48 2 100 l7 94 621 0 c669
0 645 -2 659 53 6 27 101 219 149 302 14 25 26 48 26 53 0 4 -326 7 -725 7
l-726 0 3 98 3 97 685 1 c377 1 727 2 778 3 l94 1 16 43 c15 39 76 162 241
482 37 72 73 140 81 152 34 53 86 51 -1230 56 -1020 5 -1223 3 -1267 -9z
m2225 -2606 l3 -98 -128 -1 c-336 -2 -1507 2 -1511 5 -5 6 -11 179 -5 189 2 4
372 6 821 5 l817 -3 3 -97z m-5 -559 c-1 -50 -5 -94 -8 -98 -8 -8 -1326 -18
-1500 -11 l-130 5 -3 97 -3 97 103 3 c57 2 427 2 823 0 l720 -2 -2 -91z"/>
</g>
</svg>
